<svg xmlns="http://www.w3.org/2000/svg" viewBox="0 0 1024 1024">
  <defs>
    <linearGradient id="bg" x1="120" y1="120" x2="904" y2="904" gradientUnits="userSpaceOnUse">
      <stop stop-color="#ff8fa6"/>
      <stop offset="0.58" stop-color="#f49ac1"/>
      <stop offset="1" stop-color="#79c6c2"/>
    </linearGradient>
    <filter id="shadow" x="-20%" y="-20%" width="140%" height="140%">
      <feDropShadow dx="0" dy="28" stdDeviation="32" flood-color="#914f61" flood-opacity="0.28"/>
    </filter>
  </defs>
  <rect width="1024" height="1024" rx="232" fill="url(#bg)"/>
  <circle cx="512" cy="512" r="286" fill="#fff" opacity="0.94" filter="url(#shadow)"/>
  <path d="M392 374c0-26 21-47 47-47h114c26 0 47 21 47 47v22h45c28 0 51 23 51 51v166c0 28-23 51-51 51H379c-28 0-51-23-51-51V447c0-28 23-51 51-51h13v-22Zm47 0v22h114v-22H439Zm73 89a76 76 0 1 0 0 152 76 76 0 0 0 0-152Zm0 48a28 28 0 1 1 0 56 28 28 0 0 1 0-56Z" fill="#f46b92"/>
  <path d="M664 376h41c20 0 36 16 36 36v156l-77-45V376Z" fill="#79c6c2"/>
</svg>
